<svg xmlns="http://www.w3.org/2000/svg" xmlns:xlink="http://www.w3.org/1999/xlink" viewBox="0 0 629.1 395.49"><defs><linearGradient id="a" x1="61.42" y1="319.53" x2="50.9" y2="371.17" gradientUnits="userSpaceOnUse"><stop offset="0" stop-color="#ef550b"/><stop offset="1" stop-color="#fa4408"/></linearGradient><linearGradient id="b" x1="-0.2" y1="373.3" x2="24.51" y2="373.3" gradientUnits="userSpaceOnUse"><stop offset="0.01" stop-color="#158136"/><stop offset="1" stop-color="#098f57"/></linearGradient><linearGradient id="c" x1="8.56" y1="391.08" x2="17.43" y2="362.52" gradientUnits="userSpaceOnUse"><stop offset="0.01" stop-color="#007f39"/><stop offset="1" stop-color="#00742b"/></linearGradient><linearGradient id="d" x1="19" y1="355.76" x2="45.88" y2="355.76" xlink:href="#b"/><linearGradient id="e" x1="25.8" y1="389.38" x2="42.68" y2="335.04" xlink:href="#c"/><linearGradient id="f" x1="100.61" y1="328.87" x2="64.02" y2="392.17" gradientUnits="userSpaceOnUse"><stop offset="0" stop-color="#095f47"/><stop offset="1" stop-color="#008053"/></linearGradient><linearGradient id="g" x1="59.74" y1="366.88" x2="93.88" y2="366.88" gradientUnits="userSpaceOnUse"><stop offset="0.01" stop-color="#005c2f"/><stop offset="1" stop-color="#00464f"/></linearGradient><linearGradient id="h" x1="482.33" y1="347.07" x2="528.8" y2="347.07" gradientTransform="matrix(-1, 0, 0, 1, 620, 0)" xlink:href="#b"/></defs><title>Muñequitos 1er piso</title><g style="isolation:isolate"><path d="M235.13,86.06s-10.53-.35-13.89,8.28-.82,15.24.14,18.38c2.5,8.21,2.7,11.19,1.49,16.14-1.07,4.39-2.06,6.66-3.3,10.76s.83,3.65,1,3.95,41.22,4.09,41.22,4.09-1.1-8.89-4-10.95-5.75-2.48-3.55-11.28,3.6-12.88,2.36-19.26c-1.42-7.39-2.32-12-9.27-16.86A18.71,18.71,0,0,0,235.13,86.06Z" transform="translate(0.2 -4)" style="fill:#3b3b40"/><path d="M223,376.23s5.79,8.6,8.12,10.67c0,0,5.19,1.91,5.71,5.53s.43,6.05-5.71,6.23S221,397.73,219.82,394a16.89,16.89,0,0,0-3.58-6.24v7.77h-1.38s-.35-7.51-.43-8.89-1-6.7,1.92-9.06A8.11,8.11,0,0,1,223,376.23Z" transform="translate(0.2 -4)" style="fill:#d4d4d4"/><path d="M252,369.37a24.89,24.89,0,0,0,2.89,4.83c1.39,1.81,5.71,9.25,7.61,9.77s7.77,1.55,8.29,4.84.78,5.61-5,5.87-9.59.61-12.35-3.46a30,30,0,0,0-7.18-7v10.59H244s-1-11-1.64-11.8-2.16-9.25,3.19-13.65S252,369.37,252,369.37Z" transform="translate(0.2 -4)" style="fill:#d4d4d4"/><path d="M219.09,210.31s-6.5,9.67-8.48,20.94.36,48.95.28,54.52-5.27,19.44-4.24,29.94,9.7,61.88,9.7,61.88l6.63-1.36s-.65-53.26,0-57.67,2-20.46,2.21-22.28,16.45-49.46,16.45-57.58S236.72,197,219.09,210.31Z" transform="translate(0.2 -4)" style="fill:#eea886"/><path d="M255.81,214s12,45.84,13.44,52.19,3.49,11.58,3.49,14.28c0,6.26-2.33,16.3-2.33,16.3L252,369.37l-7.65,1.2s4.42-44.6,4.64-53.16,6.82-20.75,5.52-24.38-20.86-45.49-20.86-45.49S218.79,200.72,255.81,214Z" transform="translate(0.2 -4)" style="fill:#eea886"/><path d="M231.1,386.9s-5.92,3.32-9.74-.94a30.16,30.16,0,0,1-5-8.37l6.63-1.36Z" transform="translate(0.2 -4)" style="fill:#eea886"/><path d="M262.46,384s-5.19,1.29-7.17,0-8.75-12.72-11-13.4c0,0,2.16-4.4,7.65-1.2C252,369.37,261,382.07,262.46,384Z" transform="translate(0.2 -4)" style="fill:#eea886"/><path d="M272.74,280.49S245,292.42,203.6,292.42c0,0,4.36-62.67,10.37-76.17s42.8,1.36,42.8,1.36S272.74,269.18,272.74,280.49Z" transform="translate(0.2 -4)" style="fill:#ff984a"/><path d="M260.12,169.36c-3.12,7.21-.18,9.62-1.61,16.83S256.58,214,256.85,218s-35.53,8.13-43.82.82c0,0,2.76-15.59,7.84-25.28,1-1.84.5-9.1-.48-11.59-.3-.77-1.5-3.72-3-7.44h0c-1.58-3.88-3.51-8.59-5.14-12.57l-3.43-8.37s-1.24-11.61,3.58-15.35c4.19-3.25,15.6-4.41,17.65-5.12s8-1,12.19-.4c0,0,6.42,3,8.64,3.47s10.87,11.67,12.39,15.77S263.24,162.14,260.12,169.36Z" transform="translate(0.2 -4)" style="fill:#ff984a"/><path d="M245.27,125.26s-1.28,11.76-1,15.59c0,0-5.36,6.52-12.94-8,0,0,1.89-5.8-.51-13.93S245.27,125.26,245.27,125.26Z" transform="translate(0.2 -4)" style="fill:#eea886"/><path d="M224.9,134.08s4.58,13.55,17.17,12.55,6-11.43,6-11.43a27.92,27.92,0,0,0-4-2c-.89-.17-12.5-.66-12.5-.66Z" transform="translate(0.2 -4)" style="fill:#eea886"/><path d="M264.91,184.66a3.38,3.38,0,0,0,1.88-.54c1.29-1,1.76-3.37,4-3.19s3.34,7.31,2.77,8.66-3.74,2-8.41,1.1S264.91,184.66,264.91,184.66Z" transform="translate(0.2 -4)" style="fill:#eea886"/><path d="M292.32,183.54s-.69-3.34-2-2.77-.13,2.78-.13,2.78Z" transform="translate(0.2 -4)" style="fill:#eea886"/><path d="M287.43,183.49s.08-1.91,3.53.06S287.43,183.49,287.43,183.49Z" transform="translate(0.2 -4)" style="fill:#eea886"/><path d="M259.1,172.28s3.77-9,3.93-11a65.92,65.92,0,0,1-2,14.24c-.66-1.08-1.32-2.17-2-3.26Z" transform="translate(0.2 -4)" style="fill:#2f3169"/><path d="M263,161.31v-.17A1,1,0,0,1,263,161.31Z" transform="translate(0.2 -4)" style="fill:#d1c0ba"/><path d="M243.71,184.67,228,157s5.49,27.56,9.64,28.49S243.71,184.67,243.71,184.67Z" transform="translate(0.2 -4)" style="fill:#2f3169"/><path d="M243.33,91.59s11.61,7.58,7.84,25.9-17.48,8.25-19,7.21-6.09-12.51-6.27-17.51C225.76,102.48,223.3,83.6,243.33,91.59Z" transform="translate(0.2 -4)" style="fill:#eea987"/><path d="M242.53,95.26c-1.21-.35-5.29,7.54-7.49,9.49s-6.25,6.84-6.64,12.21-4.92-11.72-3.36-18,3.65-15.63,17.8-8.26,10.5,20.54,10.5,20.54S248.65,97.07,242.53,95.26Z" transform="translate(0.2 -4)" style="fill:#3b3b40"/><path d="M232.73,107.91c-.38-2.17-5.16-4-5.09-.74s2.71,7,4.21,6.78S233.07,109.91,232.73,107.91Z" transform="translate(0.2 -4)" style="fill:#eea987"/><path d="M233.31,125.46c.09.16,2.85,5.47,11.3,6.81.19-2.08.45-4.61.45-4.61A13.58,13.58,0,0,1,233.31,125.46Z" transform="translate(0.2 -4)" style="fill:#a87860"/><path d="M343.76,186.7a.54.54,0,0,1-.46-.27,27.23,27.23,0,0,0-3.52-4.79.55.55,0,0,1,0-.76.54.54,0,0,1,.76,0,27.6,27.6,0,0,1,3.66,5,.53.53,0,0,1-.2.73A.52.52,0,0,1,343.76,186.7Z" transform="translate(0.2 -4)" style="fill:#c55469"/><path d="M340.94,196.24a.53.53,0,0,1-.46-.26,8,8,0,0,1,.51-8.67.53.53,0,0,1,.75-.11.55.55,0,0,1,.11.76,6.85,6.85,0,0,0-.44,7.47.55.55,0,0,1-.19.74A.55.55,0,0,1,340.94,196.24Z" transform="translate(0.2 -4)" style="fill:#c55469"/><path d="M292.59,189.7s-20.4,2.18-25.45-.61c-2.53-1.4-5.95-7.19-9.11-13.54-.54-1.08-1.07-2.17-1.58-3.26-3.87-8.19-7-16.22-7-16.22s-9.34-14.58.6-19.79a12.46,12.46,0,0,1,6.25,5.93,66,66,0,0,1,4.75,13.8c.47,2.27,8.45,22.31,9,22.87s5.52.19,9.39.65c6.31.73,13,1.17,13,1.17Z" transform="translate(0.2 -4)" style="fill:#ff984a"/><path d="M344.86,116.3a8.05,8.05,0,0,1,2.4,5.13,6.44,6.44,0,0,1-1.69,4.94l-49.1,52.15-51.42,48.37a6.49,6.49,0,0,1-4.83,1.7,8.07,8.07,0,0,1-5.23-2.4h0a8.07,8.07,0,0,1-2.4-5.24,6.43,6.43,0,0,1,1.7-4.82L283,164.33l51.78-48.74C337.49,113.07,342,113.38,344.86,116.3Z" transform="translate(0.2 -4)" style="fill:#858387"/><path d="M344.12,115.56a6.79,6.79,0,0,1,.13,9.49L295,177l-51.26,48.54a6.79,6.79,0,0,1-9.49-.13h0a6.81,6.81,0,0,1-.13-9.49L283,164.33l51.62-48.9A6.79,6.79,0,0,1,344.12,115.56Z" transform="translate(0.2 -4)" style="fill:#fafffb"/><rect x="268.44" y="169.4" width="37.29" height="8.21" transform="translate(-38.41 249.82) rotate(-45)" style="fill:#72877b"/><rect x="268.59" y="169.34" width="36.74" height="7.28" transform="translate(-38.07 249.57) rotate(-45)" style="fill:#9bc4ae"/><path d="M249.7,210a4.83,4.83,0,0,1,0,6.82l-10.64,10.64a6.79,6.79,0,0,1-4.82-2h0a6.76,6.76,0,0,1-2-4.83L242.88,210A4.83,4.83,0,0,1,249.7,210Z" transform="translate(0.2 -4)" style="fill:#858387;opacity:0.30000000000000004"/><path d="M238.92,215.87a.7.7,0,0,1,0,1,.69.69,0,0,1-1-1A.7.7,0,0,1,238.92,215.87Z" transform="translate(0.2 -4)" style="fill:#858387"/><path d="M240.92,213.87a.69.69,0,1,1-1,0A.68.68,0,0,1,240.92,213.87Z" transform="translate(0.2 -4)" style="fill:#858387"/><path d="M242.92,211.87a.68.68,0,0,1,0,1,.69.69,0,0,1-1-1A.68.68,0,0,1,242.92,211.87Z" transform="translate(0.2 -4)" style="fill:#858387"/><path d="M240.42,217.38a.69.69,0,1,1-1,0A.68.68,0,0,1,240.42,217.38Z" transform="translate(0.2 -4)" style="fill:#858387"/><path d="M242.43,215.38a.69.69,0,0,1-1,1,.69.69,0,0,1,1-1Z" transform="translate(0.2 -4)" style="fill:#858387"/><path d="M244.43,213.37a.69.69,0,1,1-1,0A.68.68,0,0,1,244.43,213.37Z" transform="translate(0.2 -4)" style="fill:#858387"/><path d="M241.93,218.89a.68.68,0,0,1,0,1,.7.7,0,0,1-1,0,.69.69,0,1,1,1-1Z" transform="translate(0.2 -4)" style="fill:#858387"/><path d="M243.93,216.88a.69.69,0,1,1-1,0A.68.68,0,0,1,243.93,216.88Z" transform="translate(0.2 -4)" style="fill:#858387"/><path d="M245.94,214.88a.69.69,0,1,1-1,0A.68.68,0,0,1,245.94,214.88Z" transform="translate(0.2 -4)" style="fill:#858387"/><circle cx="243.15" cy="216.88" r="0.69" style="fill:#858387"/><path d="M245.44,218.39a.69.69,0,1,1-1,0A.68.68,0,0,1,245.44,218.39Z" transform="translate(0.2 -4)" style="fill:#858387"/><path d="M247.44,216.38a.69.69,0,0,1-1,1,.69.69,0,0,1,1-1Z" transform="translate(0.2 -4)" style="fill:#858387"/><path d="M334.14,125.56l-28,28a1.86,1.86,0,0,1-2.62,0h0a1.85,1.85,0,0,1,0-2.63l28-28a1.85,1.85,0,0,1,2.63,0h0A1.85,1.85,0,0,1,334.14,125.56Z" transform="translate(0.2 -4)" style="fill:#fcbefc"/><path d="M337.5,128.91l-9.16,9.15a1.84,1.84,0,0,1-2.62,0h0a1.84,1.84,0,0,1,0-2.62l9.15-9.16a1.87,1.87,0,0,1,2.63,0h0A1.87,1.87,0,0,1,337.5,128.91Z" transform="translate(0.2 -4)" style="fill:#fcbefc"/><path d="M291.71,164.16a3,3,0,1,0,4.18,0A3,3,0,0,0,291.71,164.16Zm2.88,2.08,1.24,1.24-.79.79L293.8,167l-1.24,1.24-.79-.79,1.24-1.24L291.77,165l.79-.79,1.24,1.24,1.24-1.24.79.79Z" transform="translate(0.2 -4)" style="fill:#72877b"/><path d="M280.6,179.78l1.08,1.3-.57,0-.75-.88,0-.4Zm-.69-.15-.74-.88,0-.64,1.09,1.3v.24Z" transform="translate(0.2 -4)"/><path d="M282.19,177.55l.29,0,0,.31-1.06,1.06-.28,0v-.31Z" transform="translate(0.2 -4)"/><path d="M283.49,177.05l.74.87,0,.64-1.08-1.29V177Zm2.4-.07-1.59,1.59,0-.64,1-1Zm-1.69-1.44h.29l0,.32-1.05,1.06-.29,0v-.31Zm-.89-1.64,0,.63-1,1-.58,0Zm.82,1.51-.74-.88,0-.63,1.09,1.3v.23Z" transform="translate(0.2 -4)"/><path d="M265.8,183.1a69.31,69.31,0,0,1,7.05-1.93c3.32-.72,7.27-.95,7.66-.38S277.28,182,274,182.9c-3,.85-2.27,1.16-2.27,1.16s-.2-.1,3.21-.41c3.67-.35,7.45-.34,7.83.39.18.36.05.6-1.27.94.79,0,.91.17.94.49.15,1.65-5.2,3-7.33,3.49,1.64-.39,2.87-.51,2.29.59-.68,1.27-8.32,2.8-11,3.6C263.48,194,265.8,183.1,265.8,183.1Z" transform="translate(0.2 -4)" style="fill:#eea886"/><path d="M213,137.67s-7.52,3.75-4.93,13.45,5.18,12.49,7.66,16.12c2.34,3.42,7.12,12.64,7.7,13.68s6.34,16.09,11.62,17.8,31.45-6.61,32-5.7,0-9.17,0-9.17-12.14.9-14.82.72c-4.35-.3-11.34,1.48-13-2.29-2-4.43-9-19-9.79-21.38S220,135.21,213,137.67Z" transform="translate(0.2 -4)" style="fill:#ff984a"/><path d="M288.84,177.3s4.94-1.15,6.53,1.23a9.31,9.31,0,0,1,1.26,6.86c-.4,1.42-1.68,5.06-3.35,4.31C287.91,187.3,288.84,177.3,288.84,177.3Z" transform="translate(0.2 -4)" style="fill:#eea886"/><path d="M628.88,354.27c-.41,2.91-17.92,15.17-21.37,17.62-2.77,2-5.17,2.87-9.36,4.45h0c-9.5,2.49-69.15,20.29-69.15,20.29a7.32,7.32,0,0,0-.59-1.81c-2.22.89-4.52,1.46-6,1.92-2.22.69-19.85,1.24-23.45,1.94s-10.83,1.8-13.74-1,1.8-8.75,5.82-10.27,18.74-1.94,21.38-2.22,6.1-1.25,7.77-.7c.52.18,2.85-.5,5.79-1.52-.08-1.08-.09-1.76-.09-1.76l15.66-4.52L538.68,349s6.81-25.68,34-6.09c0,0,6.07,1.78,8.15,2.34a2.47,2.47,0,0,0,.7,0c4.15-.31,22-5.71,28.45-5.71,6.94,0,9.16-.42,11.65.83S629.3,351.36,628.88,354.27Z" transform="translate(0.2 -4)" style="fill:#494f80"/><path d="M601,397.71c-2.92,2.77-10.14,1.66-13.74,1s-21.24-1.25-23.46-1.94-6.38-1.67-9.3-3.61a9.43,9.43,0,0,0-1.55-.69h0l-4.4,3.18-61.28-19.51a22,22,0,0,1-8.53-4.23c-3.19-2.77-21-14.71-21.37-17.62s4.72-12.63,7.22-13.88,4.71-.83,11.65-.83,27.07,6.24,29.15,5.69a30.22,30.22,0,0,0,4.76-2.27c2.23-1.21,4.3-2.45,4.3-2.45,29.81-13.3,33.13,8.47,33.13,8.47l-1.77,26.87s2.49,1.24,5.72,2.77l14.77,4.18-1.93,1.39a3.75,3.75,0,0,0,1.66.31c1.67-.55,5.14.42,7.77.7s17.35.69,21.38,2.22S603.91,394.93,601,397.71Z" transform="translate(0.2 -4)" style="fill:#494f80"/><path d="M510.14,343c2.06.15,15.94,8.19,19.24,10.12-5-2.62-24-7.85-24-7.85A30.22,30.22,0,0,0,510.14,343Z" transform="translate(0.2 -4)" style="fill:#5478b3"/><path d="M581.56,345.27s-23.92,5.81-28.3,8.24c.2-.15,12.61-9.58,19.12-10.84,0,0,6.4,2,8.48,2.58a2.47,2.47,0,0,0,.7,0Z" transform="translate(0.2 -4)" style="fill:#494f80"/><path d="M516.22,349.11c0,.07,0,.13,0,.16C515.93,349.48,516,349.39,516.22,349.11Z" transform="translate(0.2 -4)" style="fill:#e55353"/><path d="M596.43,316.66c-.23-.47-12.87-20.35-16.3-29.42S568.47,274,564.59,272.71l-6.46-2.11-9.82-3.16H532.12s-5.61,1.88-11.57,4h0c-5.49,1.93-11.27,4-13.22,5-4.07,2-10.92,16.56-12.3,18.22s-12.06,21.45-13.6,29.05c-1.2,5.91,33.85,23.2,34.8,25.42,1.11-1.23,6.22-6.13,6.22-6.13s-1.64-1-3.94-2.54c9.39.43,32.33-.38,35.62-.21a17,17,0,0,0,2.12-.05h0c1,.74,7.59,6.54,7.59,6.54S580,340,587.46,332.48C598,321.8,597.6,319,596.43,316.66Zm-92.06,13.16c-3.47-4.16-8.24-6.68-7-8.53s11.38-19.43,11.38-19.43,5.27,11.56,6.75,17.58,1.37,8.76.74,10.64c-.56,1.67-1,2.81-1.51,7.81C510.54,335.06,506,331.73,504.37,329.82Zm71.59-2c-1.36,1.55-6.75,5-11.59,7.78-.37-3.35-.92-8.63-1-10.53-.1-2.87,1.11-11.1,2.59-14.25s2.49-11.75,2.49-11.75,12.26,16.66,14.21,18.41S580.55,322.61,576,327.83Z" transform="translate(0.2 -4)" style="fill:#e55353"/><path d="M540.73,393.14l33.14-9.81-6.55-2S540.83,390.93,540.73,393.14Z" transform="translate(0.2 -4)" style="fill:#494f80"/><path d="M530.08,353.51l-.7-.41A5.92,5.92,0,0,1,530.08,353.51Z" transform="translate(0.2 -4)" style="fill:#525252"/><path d="M523.51,368.87s-19.38-11.62-27.85-13.44c-8-1.73-10.91-4.72-10.91-4.72s12.72,0,21.18,6C511.68,360.81,523.51,368.87,523.51,368.87Z" transform="translate(0.2 -4)" style="fill:#2f3252"/><path d="M540.73,377s33.71-17.7,47.48-21.54c7.88-2.2,10.91-4.72,10.91-4.72s-20.84,2-33.51,9.67C559.57,364,540.73,377,540.73,377Z" transform="translate(0.2 -4)" style="fill:#2f3252"/><polygon points="540.93 389.14 556.44 384.41 545.68 390.65 540.93 389.14" style="fill:#2f3252"/><path d="M601,397.71c-2.92,2.77-10.14,1.66-13.74,1s-21.24-1.25-23.46-1.94l-2.32-.69h0a26.78,26.78,0,0,1-7-2.92,9.43,9.43,0,0,0-1.55-.69l11.09-8,.32-.23a3.75,3.75,0,0,0,1.66.31c1.67-.55,5.14.42,7.77.7s17.35.69,21.38,2.22S603.91,394.93,601,397.71Z" transform="translate(0.2 -4)" style="fill:#eea886"/><path d="M601,397.71c-2.92,2.77-10.14,1.66-13.74,1s-21.24-1.25-23.46-1.94l-2.32-.69h0A11.73,11.73,0,0,0,564,384.44l.32-.23a3.75,3.75,0,0,0,1.66.31c1.67-.55,5.14.42,7.77.7s17.35.69,21.38,2.22S603.91,394.93,601,397.71Z" transform="translate(0.2 -4)" style="fill:#c5cddb"/><path d="M528.41,394.82c-2.22.89-4.52,1.46-6,1.92-2.22.69-19.85,1.24-23.45,1.94s-10.83,1.8-13.74-1,1.8-8.75,5.82-10.27,18.74-1.94,21.38-2.22,6.1-1.25,7.77-.7c.52.18,2.85-.5,5.79-1.52C526.1,384.76,528.41,394.82,528.41,394.82Z" transform="translate(0.2 -4)" style="fill:#eea886"/><path d="M522.44,396.74c-2.22.69-19.85,1.24-23.45,1.94s-10.83,1.8-13.74-1,1.8-8.75,5.82-10.27,18.74-1.94,21.38-2.22,6.1-1.25,7.77-.7C520.22,384.52,515.77,391.32,522.44,396.74Z" transform="translate(0.2 -4)" style="fill:#c5cddb"/><path d="M548.47,267.49l0-.05c-.78-1.76-.4-10.36-.4-10.36s-16.13-4.11-15.67-1S531,267.82,531,267.82l-8.28,2.83s8.82,23.67,18.95,20.61,14-21.46,14-21.46Z" transform="translate(0.2 -4)" style="fill:#eea886"/><path d="M539.49,222.44s17-4,15.26,17.12c-1.8,21.43-5.69,23.93-11.12,24.31-6.82.47-13.81-2.5-17.7-19.09C522.22,229,529.08,222.43,539.49,222.44Z" transform="translate(0.2 -4)" style="fill:#eea886"/><path d="M527.16,249.27s-.84-3.29.36-4.09a1.64,1.64,0,0,1,2.43.75l1.65-.09s-2.56-5.8,2.62-6.33,16.08-.2,19.06-2c0,0,.75,3.93.74,4.86s.46.12.46.12,2.8-15.1-6-21.37-19.74-1.43-22.11,4.16S522.89,236.58,527.16,249.27Z" transform="translate(0.2 -4)" style="fill:#292c47"/><path d="M531,267.82s1.19,10.22,10.21,8.78,7.25-9.14,7.25-9.14,9.58,3.07,13.31,4.33c0,0-7.58,32-26.42,27.85s-12.79-28.94-12.79-28.94Z" transform="translate(0.2 -4)" style="fill:#e55353"/><path d="M546.89,263.17a13.11,13.11,0,0,1-13.13-2.38s2.47,5.53,7.12,5.87A5.73,5.73,0,0,0,546.89,263.17Z" transform="translate(0.2 -4)" style="fill:#a77860"/><path d="M528.83,241.56s-1.7-1.7-2.17-.19,2.2,8.49,3.09,8.65S530.84,243.63,528.83,241.56Z" transform="translate(0.2 -4)" style="fill:#eea886"/><path d="M572.93,318.17,557.23,301a8.43,8.43,0,0,0-11.88-.89L513.66,327.4a7.77,7.77,0,0,0-.85,11.33l16.55,19.57a8.44,8.44,0,0,0,11.86,1.14l31.69-27.26C576.44,329.14,576,321.69,572.93,318.17Z" transform="translate(0.2 -4)"/><path d="M572,317.13l-16.58-19.26a8.44,8.44,0,0,0-11.93-.84l-32,27.51a8.47,8.47,0,0,0-1,11.93l16.58,19.27a8.46,8.46,0,0,0,11.93.84l32-27.52A8.47,8.47,0,0,0,572,317.13Z" transform="translate(0.2 -4)" style="fill:#3b5d60"/><rect x="526.38" y="305.66" width="38.13" height="35.11" transform="translate(-78.64 429.88) rotate(-40.7)" style="fill:#7ea8aa"/><polygon points="521.93 318.51 549.67 294.65 548.66 293.47 519.75 318.34 542.64 344.95 543.81 343.94 521.93 318.51"/><rect x="516.09" y="324.49" width="7.88" height="16.06" transform="translate(-90.86 415.55) rotate(-40.7)" style="fill:#3b4254"/><rect x="528.44" y="338.75" width="7.88" height="16.26" transform="translate(-97.24 427.08) rotate(-40.7)" style="fill:#3b4254"/><polygon points="527.98 331.5 522.8 335.96 512.79 324.32 512 325 522.47 337.18 528.44 332.04 527.98 331.5" style="fill:#3b4254;mix-blend-mode:multiply"/><polygon points="540.4 345.94 535.22 350.4 525.08 338.61 524.29 339.29 534.89 351.61 540.86 346.48 540.4 345.94" style="fill:#3b4254;mix-blend-mode:multiply"/><path d="M523.86,351.91l-9.71-11.29h0a4.33,4.33,0,0,1,6.11.46l4.06,4.72a4.33,4.33,0,0,1-.46,6.11Z" transform="translate(0.2 -4)" style="fill:#3b4254"/><rect x="522.33" y="329.22" width="6.29" height="20.03" rx="3.14" transform="translate(606.02 955.52) rotate(-130.23)" style="fill:#fff"/><path d="M532.39,331.91l1.46,1.73-3.22,2.73a1.14,1.14,0,0,1-1.6-.14h0a1.13,1.13,0,0,1,.14-1.59Z" transform="translate(0.2 -4)" style="fill:#f40c23"/><rect x="518.15" y="344.76" width="5.36" height="0.68" transform="translate(-99.5 413.98) rotate(-40.23)" style="fill:#ada7af"/><rect x="517.54" y="344.05" width="5.36" height="0.68" transform="translate(-99.18 413.42) rotate(-40.23)" style="fill:#ada7af"/><rect x="516.94" y="343.34" width="5.36" height="0.68" transform="translate(-98.86 412.86) rotate(-40.23)" style="fill:#ada7af"/><rect x="516.34" y="342.63" width="5.36" height="0.68" transform="translate(-98.55 412.3) rotate(-40.23)" style="fill:#ada7af"/><polygon points="534.73 344.32 531.25 343.1 534.05 340.7 534.73 344.32" style="fill:#9da9c6"/><path d="M538.5,318.79,535.44,321l-2.08-.25,4.5-3.23.78.07Zm-.38,7.91-4.82-5.6,2.08.25,3,3.47Zm1-10.11,4.51-3.24-.24,1.89-3.07,2.2-1.29-.14Zm4.1,4.92-.11,1-1-.14-3.21-3.74.14-.92,1,.11Zm5.58-2.52-2.05-.22-3-3.47.23-1.89ZM543,323.52l-4.5,3.22.25-1.87,3.06-2.21,1.3.14Z" transform="translate(0.2 -4)"/><path d="M539.77,328.61l1.16-.82.92,1.07-1.16.83Z" transform="translate(0.2 -4)"/><path d="M544.44,331.47l-2.08-.24,4.5-3.24.78.07-.14,1.19Zm2.69,5.69-4.83-5.6,2.08.25,3,3.48Zm2.24-9.25-1.29-.14.09-.71,4.51-3.24-.24,1.88Zm8.48,1.54-2.05-.22-3-3.47.23-1.89Zm-10.34,7.76.25-1.88,3.06-2.22,1.3.15L552,334Zm5.8-4.17-.76-.07.14-1.2,3.07-2.21,2.07.24Z" transform="translate(0.2 -4)"/><polygon points="561.44 308.33 529.44 310 535.45 304.83 557.43 303.68 561.44 308.33" style="fill:#ccf2f2;opacity:0.39;mix-blend-mode:overlay"/><polygon points="570.12 318.42 521.98 320.93 519.75 318.34 526.38 312.63 563.47 310.69 570.12 318.42" style="fill:#ccf2f2;opacity:0.39;mix-blend-mode:overlay"/><polygon points="570.71 320.81 567.1 323.91 526.37 326.04 523.97 323.25 570.71 320.81" style="fill:#ccf2f2;opacity:0.39;mix-blend-mode:overlay"/><path d="M561.54,335.4s-6-.59-6.86.82l3,4.43s-6.25,6.64-5.87,7.06L553.9,350l2.18-3s.91,1.64,1.51,1.66a4.37,4.37,0,0,0,1.46-.31,11,11,0,0,0,2.71,1.38c1.45.47,2.32,1.42,3.76,1.26s4.77-7.94,5.12-9.08a2.67,2.67,0,0,0,.06-.35,6.2,6.2,0,0,0-9.16-6.17Z" transform="translate(0.2 -4)" style="fill:#e48868"/><path d="M517,338s5.7-1.93,6.86-.76l-1.88,5s7.59,5.06,7.31,5.55l-1.54,2.74-2.81-2.44s-.51,1.79-1.1,2a4.42,4.42,0,0,1-1.48,0,11.4,11.4,0,0,1-2.34,2c-1.3.79-1.93,1.91-3.38,2.08s-6.44-6.66-7-7.69a3.24,3.24,0,0,1-.14-.33A6.19,6.19,0,0,1,517,338Z" transform="translate(0.2 -4)" style="fill:#e48868"/><g style="opacity:0.53"><path d="M53.08,334.94c-.32-4.46-4.78-5.41-7.33-1.27s-1.59,20.4,9.57,22.95,12.43-5.1,13.7-9.88S67.11,333.67,64.56,334s-3.83,6.38-3.83,6.38,0-8.6-3.82-9.24S53.08,334.94,53.08,334.94Z" transform="translate(0.2 -4)" style="fill:url(#a)"/><path d="M24.51,392.88s-2-20.32-11-31.8-14.35-8.6-13.71,1.28S11,393,11,393Z" transform="translate(0.2 -4)" style="fill:url(#b)"/><path d="M16.31,393.33S3.35,364.67,5,362.13s15.54,31.2,15.54,31.2Z" transform="translate(0.2 -4)" style="fill:url(#c)"/><path d="M45.59,392.92s2.07-22.6-4.94-41.72-18.17-34.11-19.76-32.52-3.83,21.37,1.27,40.49A148.17,148.17,0,0,0,36,393Z" transform="translate(0.2 -4)" style="fill:url(#d)"/><path d="M39.5,393.33c0-3.26-17.34-40-15.42-57.86,0,0,9.88,22.41,12.11,33.25S43,393.33,43,393.33Z" transform="translate(0.2 -4)" style="fill:url(#e)"/><path d="M71.85,393.33s18.85-11.68,26.5-34.63,7-31,4.46-32.6-17.85,7.45-30,23.39-20,43.84-20,43.84Z" transform="translate(0.2 -4)" style="fill:url(#f)"/><path d="M59.74,393s7.05-24.43,13.74-31.44,20.4-20.8,20.4-20.8-8.6,15.74-16.25,25.62S64.4,393,64.4,393Z" transform="translate(0.2 -4)" style="fill:url(#g)"/><path d="M137.38,303.14a.7.7,0,0,0,.17-.95.68.68,0,0,0-.77-.25s-1.13.34-2.75,1a59.78,59.78,0,0,0-5.81,2.69c-1,.54-2.07,1.11-3,1.7-.72.46-1.43.88-2,1.34.27-1,.5-2,.71-2.79.31-1.22.6-2.16.78-2.81s.27-1,.27-1l0,0a.68.68,0,0,0-1.3-.4s-.09.34-.32,1-.54,1.61-.9,2.81-.8,2.69-1.3,4.4-1.11,3.59-1.61,5.74c-.15.57-.3,1.2-.46,1.81a3,3,0,0,0-.15-.38c-.56-1.32-1.4-3.06-2.22-4.78-1.64-3.46-3.42-6.87-3.42-6.87a.68.68,0,0,0-.92-.26.66.66,0,0,0-.31.84s1,2.5,2.32,5.37l-.12-.1c-.44-.3-.88-.59-1.35-.86a12.35,12.35,0,0,0-2.7-1.12l-.5-.14a1.69,1.69,0,0,0-.34-.07,1.33,1.33,0,0,0-.25,0l-.4,0a.62.62,0,0,0-.65.59.51.51,0,0,0,.09.38,2.8,2.8,0,0,0,.33.4c.13.14.23.21.36.33l.46.36a17.82,17.82,0,0,0,2.45,1.46c.44.25.9.46,1.3.67s.76.36,1.13.53c.7.37,1.2.58,1.2.58a1.31,1.31,0,0,0,.34,0c.58,1.29,1.15,2.49,1.63,3.44s1,1.8,1.15,2c-.21.87-.42,1.76-.65,2.65-.61,2.43-1.26,5-1.74,7.67s-1,5.41-1.57,8.23c-.1.57-.21,1.14-.33,1.72-.17-.37-.36-.73-.55-1.15s-.55-1.09-.86-1.7-1-1.24-1.32-1.89.57-1.36-1.34-2.07v0c0-.33.48-.82.53-1.44.1-1.14.41-2.69.46-4.24s.14-3.12,0-4.3a10.6,10.6,0,0,0-.17-1.51c0-.1,0-.17,0-.28s-.07-.19-.11-.26l-.12-.23a.27.27,0,0,0-.38-.09.19.19,0,0,0-.08.07l-.61.82a.07.07,0,0,0,0,0v0a.68.68,0,0,0,0,.19c0,.25,0,.73,0,1.28,0,1.11-.07,2.66-.15,4.2,0,.74,0,1.47-.06,2.17-.42-1-.82-2-1.21-3-.55-1.41-1.1-2.71-1.58-3.82l-1.21-2.7-.47-1a.67.67,0,0,0-1.27.43v0l.27,1.09c.19.69.46,1.67.76,2.85s.73,2.55,1.19,4c.23.73.46,1.47.69,2.24s.52,1.53.78,2.29a24.69,24.69,0,0,0,.88,2.32c.35.76.65,1.51,1,2.22s.74,1.34,1.07,2,.77,1.16,1.13,1.68a19.8,19.8,0,0,0,2,2.32,2.11,2.11,0,0,0,.23.19l-.18.85c-.07.43-.09.75-.15,1.11l-.28,2.18c-.35,2.89-.87,5.78-1,8.65-.07,1.42-.21,2.81-.31,4.2-.09-.16-.15-.34-.26-.53-.25-.44-.48-.92-.79-1.39s-.65-1-1-1.5a18.67,18.67,0,0,0-1.24-1.51,15.14,15.14,0,0,0-1.44-1.45l-.74-.71-.86-.59c-.29-.19-.58-.38-.85-.58s-.51-.3-.8-.47l-1.53-.85c-.46-.26-1-.52-1.34-.76-.78-.46-1.51-.84-1.91-1.15l-.5-.32a.49.49,0,0,1-.13-.1l-.16-.11a.64.64,0,0,0-.91.17.63.63,0,0,0,0,.78l.19.23c.13.15.28.31.49.52.43.46,1.1,1,1.86,1.61.4.32.82.59,1.28.91s.94.65,1.44,1c.22.17.53.38.74.55l.69.52.06.06a1.23,1.23,0,0,0-.27,0c-.42,0-.84.11-1.3.15-.21,0-.44,0-.65.08s-.44,0-.65,0c-.42,0-.81.08-1.15.08-.69,0-1.19.11-1.19.11h-.07a.71.71,0,0,0-.59.79.63.63,0,0,0,.42.51s.46.21,1.22.46a5.74,5.74,0,0,0,1.32.25,7.75,7.75,0,0,0,1.53,0,3.28,3.28,0,0,0,.78-.08c.27,0,.52-.09.77-.13a7,7,0,0,0,1.28-.48,3.45,3.45,0,0,0,.34-.19,6.48,6.48,0,0,1,.71.77c.38.48.81.9,1.15,1.35s.71.91,1,1.32.63.85.92,1.21c1.15,1.53,1.91,2.52,1.91,2.52v0c0,.35,0,.69,0,1,0,2.71-.23,5.35-.19,7.85s0,4.87.1,7,.13,4.17.25,5.95c.11,1.53.21,2.89.29,4-.12-.18-.26-.36-.39-.58a55,55,0,0,0-4.09-5.2c-1.57-1.82-3.21-3.6-4.48-4.88s-2.19-2.1-2.19-2.1l0,0a.68.68,0,0,0-1,.86s.61,1,1.65,2.52c.69,1,1.57,2.17,2.5,3.39-.78-.25-1.66-.48-2.58-.74-.53-.15-1.11-.31-1.62-.5a5.79,5.79,0,0,1-1.09-.59l-.21-.18-.23-.34-.67-.67c-.41-.46-.81-.88-1.17-1.32-.71-.84-1.42-1.64-2-2.33s-1.11-1.26-1.45-1.67l-.58-.63a.67.67,0,0,0-1.08.79s.15.26.39.74.69,1.11,1.17,1.9,1.09,1.68,1.78,2.65c.33.48.67,1,1.05,1.45l.58.72.26.36.16.17,0,0,.07.1,0,0,.13.13A6.9,6.9,0,0,0,99,384c.61.21,1.21.4,1.78.55a24.1,24.1,0,0,0,3.12.64c.88.13,1.62.17,2.14.2a52.7,52.7,0,0,0,3.84,4.31,25.32,25.32,0,0,0,2.3,2l0,0,.11,0c.06.56.12,1,.14,1.23h1.36c0-.52-.06-1.8-.14-3.71-.08-2.53-.11-6.12-.13-10.45,0-.38,0-.8,0-1.2.11-.21.26-.5.47-.88.44-.84,1.13-2,2-3.38.44-.67,1-1.4,1.48-2.17s1.12-1.53,1.77-2.31l1-1.17.48-.55.55-.61,2.26-2.41c3-3.29,6-6.56,8-9.24a47.35,47.35,0,0,0,3.16-4.63.7.7,0,0,0-1-.9v0a44,44,0,0,0-4.22,3.67c-2.12,2-4.61,4.8-7.16,7.73,0-.15,0-.27.06-.42.08-.56.16-1.17.23-1.8q.06-.48.12-1c.07-.33.15-.67.23-1,.15-.69.28-1.41.42-2.14.07-.36.15-.73.21-1.11l0-.27a2.07,2.07,0,0,1,.06-.24l.16-.56c.19-.75.38-1.5.59-2.22s.36-1.45.53-2.16c.41-1.36.73-2.62,1-3.73s.57-2,.75-2.68.26-1,.26-1v0a.7.7,0,0,0-.51-.82.67.67,0,0,0-.73.34,32.87,32.87,0,0,0-1.65,3.54c-.42,1.11-.89,2.41-1.34,3.81s-.74,2.88-1.1,4.4l-.14.55-.07.33,0,.28c-.08.39-.14.77-.19,1.15-.14.77-.27,1.51-.37,2.24,0,.36-.09.73-.15,1.07s0,.71-.06,1c0,.67-.06,1.32-.09,1.91s0,1.13,0,1.61c0,.32,0,.61.06.88-.52.61-1,1.22-1.55,1.81l-.53.64-.52.69c-.32.45-.65.9-1,1.31-.63.89-1.16,1.79-1.68,2.62s-.93,1.67-1.28,2.45c-.17.37-.32.73-.48,1.08,0-.52,0-1,0-1.54,0-2.46.21-5.06.31-7.76s.4-5.49.61-8.3.61-5.68,1-8.53l.24-2.14c.06-.35.1-.75.16-1l.19-1.08c.25-1.41.52-2.83.77-4.22.49-2.81,1-5.57,1.49-8.25s1-5.22,1.54-7.63,1.06-4.7,1.52-6.81c.26-1.26.55-2.45.82-3.55a4.88,4.88,0,0,0,.48-.23c.24-.1.49-.17.76-.31s.65-.29,1-.49c.73-.41,1.49-1,2.39-1.57.21-.14.44-.27.67-.43a4.12,4.12,0,0,0,.82.65,9.34,9.34,0,0,0,1.45.79c.56.23,1.17.38,1.76.58s1.25.3,1.84.4a16.12,16.12,0,0,0,1.62.23,8.93,8.93,0,0,0,1.67,0,.73.73,0,0,0,.67-.78.89.89,0,0,0-.25-.5,9.37,9.37,0,0,0-1.36-1,14.71,14.71,0,0,0-1.45-.77c-.54-.27-1.11-.52-1.7-.75a18.2,18.2,0,0,0-1.78-.57c-.16,0-.33-.06-.48-.09,1.72-1.07,3.39-2.13,4.68-3C136.44,303.81,137.38,303.14,137.38,303.14Z" transform="translate(0.2 -4)" style="fill:url(#h)"/><path d="M134.21,315.56a1.65,1.65,0,0,1,.32,0h0a1.27,1.27,0,0,1,.77,2.15,3.39,3.39,0,0,1-.46.39,1.35,1.35,0,0,1-1.86-.39,1.64,1.64,0,0,1-.25-.83A1.32,1.32,0,0,1,134.21,315.56Z" transform="translate(0.2 -4)" style="fill:#ed9b9a"/><path d="M132.67,298.25c1.72,0,1.87,2.69.14,2.69S130.93,298.25,132.67,298.25Z" transform="translate(0.2 -4)" style="fill:#ed9b9a"/><path d="M119.26,304.52c.87,0,.94,1.35.07,1.35S118.39,304.52,119.26,304.52Z" transform="translate(0.2 -4)" style="fill:#ed9b9a"/><path d="M109.18,318.42h.22c.87,0,.94,1.34.07,1.34h-.22C108.39,319.76,108.31,318.42,109.18,318.42Z" transform="translate(0.2 -4)" style="fill:#ed9b9a"/><path d="M103.8,345.53c.87,0,.94,1.34.07,1.34S102.93,345.53,103.8,345.53Z" transform="translate(0.2 -4)" style="fill:#ed9b9a"/><path d="M134.05,361.66c.86,0,.93,1.34.07,1.34S133.18,361.66,134.05,361.66Z" transform="translate(0.2 -4)" style="fill:#ed9b9a"/><path d="M107.84,378.91h.25c.86,0,.94,1.34.07,1.34h-.26C107,380.25,107,378.91,107.84,378.91Z" transform="translate(0.2 -4)" style="fill:#ed9b9a"/><path d="M120.16,342.61c.86,0,.93,1.34.07,1.34S119.29,342.61,120.16,342.61Z" transform="translate(0.2 -4)" style="fill:#ed9b9a"/><path d="M130.39,341c2.59,0,2.82,4,.21,4S127.79,341,130.39,341Z" transform="translate(0.2 -4)" style="fill:#ed9b9a"/><path d="M102.87,358.07c1.73,0,1.88,2.69.14,2.69S101.13,358.07,102.87,358.07Z" transform="translate(0.2 -4)" style="fill:#ed9b9a"/><path d="M102.9,328.72c.87,0,.94,1.34.08,1.34S102,328.72,102.9,328.72Z" transform="translate(0.2 -4)" style="fill:#ed9b9a"/><path d="M102.23,323.44a1.4,1.4,0,0,1,.45,1.31,1.35,1.35,0,0,1-1.59,1,1.5,1.5,0,0,1-1.22-1.1A1.36,1.36,0,0,1,102.23,323.44Z" transform="translate(0.2 -4)" style="fill:#ed9b9a"/><path d="M109.37,304.75c1.73,0,1.88,2.68.14,2.68S107.63,304.75,109.37,304.75Z" transform="translate(0.2 -4)" style="fill:#ed9b9a"/><path d="M114.27,298.7l.22-.23c1.22-1.22,3.22.57,2,1.8l-.23.23C115,301.72,113,299.93,114.27,298.7Z" transform="translate(0.2 -4)" style="fill:#ed9b9a"/></g><path d="M131.23,224.93c-.42-3.87-1.25-7.16-1.74-11H77.8c-1,3.3,2.5,6.46,2.18,8.84-1.15,8.46,6,28.45,6,28.45l1.89,11,2.53,41.67s-2.2,20.38-3.48,36.52c-.2,2.49-.28,4.92-.29,7.31,0,.65,0,1.26.1,1.87.36,12.42,4.45,23.95,4.66,36.95l6.31,1.54s2.42-21.42,4.91-40.35h0c.42-3.2.84-6.32,1.26-9.27-.06.66-.11,1.32-.16,2-.2,2.49-.29,4.92-.29,7.31,0,.65,0,1.26.09,1.87.37,12.42,4.46,23.95,4.67,36.95l6.31,1.54s2.42-21.42,4.91-40.35h0c1.78-13.54,3.6-25.82,4.6-28.07,1.56-3.49,4.37-33.74,7.31-55h0C132.44,256.51,132.08,232.89,131.23,224.93Z" transform="translate(0.2 -4)" style="fill:#b77053"/><polygon points="108.27 380.54 106.25 391.54 128.67 391.54 116.35 386.04 115.05 380.54 108.27 380.54" style="fill:#393762"/><path d="M73.86,193.8s-.1,19.67,1.67,21.57h0l4.45,7.4,51.25,2.16.69-7.25,2.54-1.69a6.25,6.25,0,0,0,2.64-6.49L124,175.88s-.86-10.67-.18-15.86S112,126.43,109.57,123.26s-11.91-3.75-15.95,0-15,20.18-15.93,23.64S73.86,193.8,73.86,193.8Z" transform="translate(0.2 -4)" style="fill:#ece0d3"/><path d="M97.55,120.12c-5.34,1.3-28.44,14.7-30.6,19s-19.72,51.12-13.51,56.35,25.39-2.41,25.39-2.41l2.55-27.75Z" transform="translate(0.2 -4)" style="fill:#ece0d3"/><path d="M105.07,143.53" transform="translate(0.2 -4)" style="fill:none;stroke:#e8a12b;stroke-linecap:round;stroke-linejoin:round;stroke-width:0.5px"/><path d="M109.39,246.25a.53.53,0,0,1-.41-.19,21.15,21.15,0,0,1-4.91-11.31.53.53,0,0,1,.47-.59.54.54,0,0,1,.6.47,20.06,20.06,0,0,0,4.66,10.73.54.54,0,0,1,0,.76A.55.55,0,0,1,109.39,246.25Z" transform="translate(0.2 -4)" style="fill:#734e4f"/><polygon points="91.48 380.54 89.46 391.54 111.88 391.54 99.57 386.04 98.26 380.54 91.48 380.54" style="fill:#393762"/><path d="M105,335.23h-.12a.55.55,0,0,1-.4-.66c.11-.47,11.53-46.82,13.5-55.56s.88-45.2.87-45.57A.53.53,0,0,1,119,233l5.49-5.82a.54.54,0,0,1,.77,0,.55.55,0,0,1,0,.76l-5.34,5.66c.09,3.38,1,37.05-.91,45.61-2,8.76-13.39,55.12-13.5,55.59A.54.54,0,0,1,105,335.23Z" transform="translate(0.2 -4)" style="fill:#734e4f"/><path d="M81.38,218.83a.54.54,0,0,1-.54-.54.53.53,0,0,1,.53-.54l47.81-.28h0a.54.54,0,0,1,.54.54.55.55,0,0,1-.54.55l-47.8.27Z" transform="translate(0.2 -4)" style="fill:#cfb199"/><path d="M240.9,62.52l-31.1,31.1a5.59,5.59,0,0,1-7.9.1l-49-49a5.59,5.59,0,0,1,.1-7.9l31.1-31.1a5.58,5.58,0,0,1,7.9-.1c51.89,51.89,49.1,49.08,49.31,49.33A5.6,5.6,0,0,1,240.9,62.52Z" transform="translate(0.2 -4)" style="fill:#f4eddc"/><polygon points="236.59 46.01 184.42 72.04 170.9 58.52 223.07 32.49 236.59 46.01" style="fill:#f4eddc;mix-blend-mode:overlay"/><polygon points="220.77 30.19 168.6 56.22 164.57 52.19 216.74 26.16 220.77 30.19" style="fill:#f4eddc;mix-blend-mode:overlay"/><path d="M241.28,54.92l-52.16,26-2.43-2.43,52.17-26L241,54.62Z" transform="translate(0.2 -4)" style="fill:#f4eddc;mix-blend-mode:overlay"/><path d="M191.89,15.09a3.45,3.45,0,0,0-4.83.4l-6.34,6.34a3.43,3.43,0,0,0-.39,4.82,3.45,3.45,0,0,0,4.82-.4l6.34-6.34A3.45,3.45,0,0,0,191.89,15.09Z" transform="translate(0.2 -4)" style="fill:#9ce2b3"/><path d="M192.64,16.55a4.25,4.25,0,0,1-1.07,1.81l-6.34,6.34a3.43,3.43,0,0,1-4.82.39,2.69,2.69,0,0,1-.76-1.45,3,3,0,0,0,.68,3,3.45,3.45,0,0,0,4.82-.4l6.34-6.34A3.82,3.82,0,0,0,192.64,16.55Z" transform="translate(0.2 -4)" style="fill:#9ce2b3;mix-blend-mode:multiply"/><path d="M183.8,18.75a3.32,3.32,0,0,1,1.27.95c.14.15,2.9,2.91,2.76,2.76.14.24.28.47.4.71a8.06,8.06,0,0,1-.71-.39l-3.33-3.32C184.06,19.23,183.92,19,183.8,18.75Z" transform="translate(0.2 -4)" style="fill:#79b28a"/><path d="M190,16.45a1.21,1.21,0,0,0-1.69,0l-5.69,5.69a1.21,1.21,0,0,0,0,1.69,1.2,1.2,0,0,0,1.68,0l5.7-5.69A1.21,1.21,0,0,0,190,16.45Z" transform="translate(0.2 -4)" style="fill:#fff;opacity:0.2;mix-blend-mode:overlay"/><path d="M198.52,21.72a3.45,3.45,0,0,0-4.83.39l-6.34,6.34a3.45,3.45,0,0,0-.39,4.83,3.45,3.45,0,0,0,4.82-.4l6.34-6.34A3.45,3.45,0,0,0,198.52,21.72Z" transform="translate(0.2 -4)" style="fill:#9ce2b3"/><path d="M199.27,23.18A4.25,4.25,0,0,1,198.2,25l-6.34,6.34a3.45,3.45,0,0,1-4.83.39,2.75,2.75,0,0,1-.75-1.45,3,3,0,0,0,.68,3,3.45,3.45,0,0,0,4.82-.4l6.34-6.34A3.86,3.86,0,0,0,199.27,23.18Z" transform="translate(0.2 -4)" style="fill:#9ce2b3;mix-blend-mode:multiply"/><path d="M190.43,25.38a3.17,3.17,0,0,1,1.26.95l2.77,2.76c.14.23.27.47.4.71-.25-.12-.48-.26-.72-.39l-3.32-3.32C190.69,25.86,190.55,25.63,190.43,25.38Z" transform="translate(0.2 -4)" style="fill:#79b28a"/><path d="M196.65,23.08a1.2,1.2,0,0,0-1.68,0l-5.69,5.69A1.19,1.19,0,1,0,191,30.46l5.69-5.69A1.19,1.19,0,0,0,196.65,23.08Z" transform="translate(0.2 -4)" style="fill:#fff;opacity:0.2;mix-blend-mode:overlay"/><path d="M205.15,28.35a3.45,3.45,0,0,0-4.83.39L194,35.08a3.46,3.46,0,0,0-.4,4.83,3.46,3.46,0,0,0,4.83-.4l6.34-6.34A3.45,3.45,0,0,0,205.15,28.35Z" transform="translate(0.2 -4)" style="fill:#9ce2b3"/><path d="M205.9,29.8a4.22,4.22,0,0,1-1.07,1.82L198.49,38a3.45,3.45,0,0,1-4.83.4,2.74,2.74,0,0,1-.75-1.46,3,3,0,0,0,.67,3,3.46,3.46,0,0,0,4.83-.4l6.34-6.34A3.87,3.87,0,0,0,205.9,29.8Z" transform="translate(0.2 -4)" style="fill:#9ce2b3;mix-blend-mode:multiply"/><path d="M197.06,32a3.08,3.08,0,0,1,1.26,1l2.77,2.76a8.06,8.06,0,0,1,.39.71c-.24-.12-.47-.26-.71-.39l-3.32-3.32A8.06,8.06,0,0,1,197.06,32Z" transform="translate(0.2 -4)" style="fill:#79b28a"/><path d="M203.28,29.71a1.18,1.18,0,0,0-1.68,0l-5.69,5.69a1.19,1.19,0,0,0,1.68,1.68l5.69-5.69A1.18,1.18,0,0,0,203.28,29.71Z" transform="translate(0.2 -4)" style="fill:#fff;opacity:0.2;mix-blend-mode:overlay"/><path d="M211.77,35a3.45,3.45,0,0,0-4.82.4l-6.34,6.34a3.46,3.46,0,0,0-.4,4.83,3.46,3.46,0,0,0,4.83-.4l6.34-6.34A3.45,3.45,0,0,0,211.77,35Z" transform="translate(0.2 -4)" style="fill:#9ce2b3"/><path d="M212.53,36.43a4.13,4.13,0,0,1-1.07,1.81l-6.34,6.34a3.45,3.45,0,0,1-4.83.4,2.74,2.74,0,0,1-.75-1.46,3,3,0,0,0,.67,3,3.46,3.46,0,0,0,4.83-.4l6.34-6.34A3.87,3.87,0,0,0,212.53,36.43Z" transform="translate(0.2 -4)" style="fill:#9ce2b3;mix-blend-mode:multiply"/><path d="M203.69,38.64a3.35,3.35,0,0,1,1.26.94l2.77,2.77c.13.23.27.46.39.71-.24-.12-.48-.26-.71-.39l-3.32-3.32A8.06,8.06,0,0,1,203.69,38.64Z" transform="translate(0.2 -4)" style="fill:#79b28a"/><path d="M209.91,36.34a1.18,1.18,0,0,0-1.68,0L202.54,42a1.19,1.19,0,1,0,1.68,1.68L209.91,38A1.18,1.18,0,0,0,209.91,36.34Z" transform="translate(0.2 -4)" style="fill:#fff;opacity:0.2;mix-blend-mode:overlay"/><path d="M218.4,41.6a3.45,3.45,0,0,0-4.82.4l-6.34,6.34a3.17,3.17,0,1,0,4.42,4.43L218,46.43A3.45,3.45,0,0,0,218.4,41.6Z" transform="translate(0.2 -4)" style="fill:#9ce2b3"/><path d="M219.16,43.06a4.06,4.06,0,0,1-1.08,1.81l-6.34,6.34a3.45,3.45,0,0,1-4.82.4,2.74,2.74,0,0,1-.75-1.46,3,3,0,0,0,.67,3,3.43,3.43,0,0,0,4.82-.39L218,46.43A3.85,3.85,0,0,0,219.16,43.06Z" transform="translate(0.2 -4)" style="fill:#9ce2b3;mix-blend-mode:multiply"/><path d="M210.32,45.26a3.45,3.45,0,0,1,1.26,1L214.35,49c.13.23.27.46.39.71a8.13,8.13,0,0,1-.71-.4L210.71,46A6.23,6.23,0,0,1,210.32,45.26Z" transform="translate(0.2 -4)" style="fill:#79b28a"/><path d="M216.54,43a1.19,1.19,0,0,0-1.69,0l-5.69,5.69a1.19,1.19,0,0,0,1.69,1.68l5.69-5.69A1.2,1.2,0,0,0,216.54,43Z" transform="translate(0.2 -4)" style="fill:#fff;opacity:0.2;mix-blend-mode:overlay"/><path d="M225,48.23a3.45,3.45,0,0,0-4.82.4L213.87,55a3.17,3.17,0,1,0,4.42,4.43l6.34-6.34A3.45,3.45,0,0,0,225,48.23Z" transform="translate(0.2 -4)" style="fill:#9ce2b3"/><path d="M225.79,49.69a4.06,4.06,0,0,1-1.08,1.81l-6.34,6.34a3.45,3.45,0,0,1-4.82.4,2.74,2.74,0,0,1-.75-1.46,3,3,0,0,0,.67,3,3.43,3.43,0,0,0,4.82-.39l6.34-6.34A3.85,3.85,0,0,0,225.79,49.69Z" transform="translate(0.2 -4)" style="fill:#9ce2b3;mix-blend-mode:multiply"/><path d="M216.94,51.89a3.42,3.42,0,0,1,1.27,1L221,55.61c.13.23.27.46.39.71a8.13,8.13,0,0,1-.71-.4s-3.35-3.35-3.32-3.31C217.2,52.37,217.06,52.14,216.94,51.89Z" transform="translate(0.2 -4)" style="fill:#79b28a"/><path d="M223.17,49.6a1.19,1.19,0,0,0-1.69,0l-5.69,5.69A1.19,1.19,0,0,0,217.48,57l5.69-5.69A1.2,1.2,0,0,0,223.17,49.6Z" transform="translate(0.2 -4)" style="fill:#fff;opacity:0.2;mix-blend-mode:overlay"/><path d="M231.66,54.86a3.45,3.45,0,0,0-4.82.4L220.5,61.6A3.17,3.17,0,1,0,224.92,66l6.34-6.34A3.45,3.45,0,0,0,231.66,54.86Z" transform="translate(0.2 -4)" style="fill:#9ce2b3"/><path d="M232.41,56.32a4.13,4.13,0,0,1-1.07,1.81L225,64.47a3.45,3.45,0,0,1-4.82.4,2.79,2.79,0,0,1-.76-1.46,3.05,3.05,0,0,0,.68,3,3.44,3.44,0,0,0,4.82-.4l6.34-6.34A3.82,3.82,0,0,0,232.41,56.32Z" transform="translate(0.2 -4)" style="fill:#9ce2b3;mix-blend-mode:multiply"/><path d="M223.57,58.52a3.42,3.42,0,0,1,1.27.95c.15.15,2.91,2.91,2.76,2.77a8.13,8.13,0,0,1,.4.71,8.13,8.13,0,0,1-.71-.4L224,59.23A8.13,8.13,0,0,1,223.57,58.52Z" transform="translate(0.2 -4)" style="fill:#79b28a"/><path d="M229.8,56.22a1.21,1.21,0,0,0-1.69,0l-5.69,5.69a1.2,1.2,0,1,0,1.69,1.69l5.69-5.69A1.21,1.21,0,0,0,229.8,56.22Z" transform="translate(0.2 -4)" style="fill:#fff;opacity:0.2;mix-blend-mode:overlay"/><path d="M174.59,32.39a3.43,3.43,0,0,0-4.82.39l-6.34,6.34A3.46,3.46,0,0,0,163,44a3.45,3.45,0,0,0,4.82-.4l6.34-6.34A3.45,3.45,0,0,0,174.59,32.39Z" transform="translate(0.2 -4)" style="fill:#9ce2b3"/><path d="M175.34,33.84a4.13,4.13,0,0,1-1.07,1.81L167.93,42a3.44,3.44,0,0,1-4.82.4,2.76,2.76,0,0,1-.76-1.46,3.07,3.07,0,0,0,.68,3,3.45,3.45,0,0,0,4.82-.4l6.34-6.34A3.84,3.84,0,0,0,175.34,33.84Z" transform="translate(0.2 -4)" style="fill:#9ce2b3;mix-blend-mode:multiply"/><path d="M166.5,36.05a3.33,3.33,0,0,1,1.27.94c.15.15,2.91,2.91,2.76,2.77a8.13,8.13,0,0,1,.4.71c-.25-.12-.48-.26-.71-.39l-3.32-3.32A8.13,8.13,0,0,1,166.5,36.05Z" transform="translate(0.2 -4)" style="fill:#79b28a"/><path d="M172.73,33.75a1.19,1.19,0,0,0-1.69,0l-5.69,5.69A1.19,1.19,0,1,0,167,41.12l5.69-5.69A1.2,1.2,0,0,0,172.73,33.75Z" transform="translate(0.2 -4)" style="fill:#fff;opacity:0.2;mix-blend-mode:overlay"/><path d="M181.22,39a3.45,3.45,0,0,0-4.82.4l-6.34,6.34a3.17,3.17,0,1,0,4.42,4.43l6.34-6.34A3.46,3.46,0,0,0,181.22,39Z" transform="translate(0.2 -4)" style="fill:#9ce2b3"/><path d="M182,40.47a4.13,4.13,0,0,1-1.07,1.81l-6.34,6.34a3.45,3.45,0,0,1-4.82.4,2.76,2.76,0,0,1-.76-1.46,3.05,3.05,0,0,0,.68,3,3.45,3.45,0,0,0,4.82-.4l6.34-6.34A3.84,3.84,0,0,0,182,40.47Z" transform="translate(0.2 -4)" style="fill:#9ce2b3;mix-blend-mode:multiply"/><path d="M173.13,42.67a3.42,3.42,0,0,1,1.27.95l2.76,2.77a8.13,8.13,0,0,1,.4.71c-.25-.12-.48-.26-.71-.39l-3.32-3.32A7.06,7.06,0,0,1,173.13,42.67Z" transform="translate(0.2 -4)" style="fill:#79b28a"/><path d="M179.36,40.38a1.19,1.19,0,0,0-1.69,0L172,46.07a1.19,1.19,0,0,0,1.69,1.68l5.69-5.69A1.2,1.2,0,0,0,179.36,40.38Z" transform="translate(0.2 -4)" style="fill:#fff;opacity:0.2;mix-blend-mode:overlay"/><path d="M187.85,45.64A3.46,3.46,0,0,0,183,46l-6.34,6.34a3.17,3.17,0,1,0,4.43,4.43l6.34-6.34A3.46,3.46,0,0,0,187.85,45.64Z" transform="translate(0.2 -4)" style="fill:#9ce2b3"/><path d="M188.6,47.1a4.13,4.13,0,0,1-1.07,1.81l-6.34,6.34a3.45,3.45,0,0,1-4.82.4,2.69,2.69,0,0,1-.76-1.46,3,3,0,0,0,.68,3,3.43,3.43,0,0,0,4.82-.39l6.34-6.34A3.85,3.85,0,0,0,188.6,47.1Z" transform="translate(0.2 -4)" style="fill:#9ce2b3;mix-blend-mode:multiply"/><path d="M179.76,49.3a3.42,3.42,0,0,1,1.27,1L183.79,53a8.13,8.13,0,0,1,.4.71,8.13,8.13,0,0,1-.71-.4S180.12,50,180.15,50C180,49.78,179.88,49.55,179.76,49.3Z" transform="translate(0.2 -4)" style="fill:#79b28a"/><path d="M186,47a1.19,1.19,0,0,0-1.69,0l-5.69,5.69a1.19,1.19,0,1,0,1.69,1.68L186,48.69A1.2,1.2,0,0,0,186,47Z" transform="translate(0.2 -4)" style="fill:#fff;opacity:0.2;mix-blend-mode:overlay"/><path d="M194.48,52.27a3.46,3.46,0,0,0-4.83.4L183.31,59a3.17,3.17,0,1,0,4.43,4.43l6.34-6.34A3.46,3.46,0,0,0,194.48,52.27Z" transform="translate(0.2 -4)" style="fill:#9ce2b3"/><path d="M195.23,53.73a4.13,4.13,0,0,1-1.07,1.81l-6.34,6.34a3.46,3.46,0,0,1-4.83.4,2.74,2.74,0,0,1-.75-1.46,3,3,0,0,0,.68,3,3.44,3.44,0,0,0,4.82-.39l6.34-6.34A3.87,3.87,0,0,0,195.23,53.73Z" transform="translate(0.2 -4)" style="fill:#9ce2b3;mix-blend-mode:multiply"/><path d="M186.39,55.93a3.27,3.27,0,0,1,1.26,1l2.77,2.77c.14.23.27.46.4.71-.25-.12-.48-.26-.72-.4,0,0-3.35-3.35-3.32-3.31C186.65,56.41,186.51,56.18,186.39,55.93Z" transform="translate(0.2 -4)" style="fill:#79b28a"/><path d="M192.61,53.63a1.2,1.2,0,0,0-1.68,0l-5.69,5.69A1.19,1.19,0,1,0,186.92,61l5.69-5.69A1.19,1.19,0,0,0,192.61,53.63Z" transform="translate(0.2 -4)" style="fill:#fff;opacity:0.2;mix-blend-mode:overlay"/><path d="M201.11,58.9a3.46,3.46,0,0,0-4.83.4l-6.34,6.34a3.17,3.17,0,1,0,4.43,4.42l6.34-6.34A3.45,3.45,0,0,0,201.11,58.9Z" transform="translate(0.2 -4)" style="fill:#9ce2b3"/><path d="M201.86,60.36a4.13,4.13,0,0,1-1.07,1.81l-6.34,6.34a3.46,3.46,0,0,1-4.83.4,2.78,2.78,0,0,1-.75-1.46,3,3,0,0,0,.67,3,3.45,3.45,0,0,0,4.83-.4l6.34-6.34A3.85,3.85,0,0,0,201.86,60.36Z" transform="translate(0.2 -4)" style="fill:#9ce2b3;mix-blend-mode:multiply"/><path d="M193,62.56a3.27,3.27,0,0,1,1.26.95l2.77,2.77a8.06,8.06,0,0,1,.39.71c-.24-.12-.47-.26-.71-.4l-3.32-3.32C193.28,63,193.14,62.81,193,62.56Z" transform="translate(0.2 -4)" style="fill:#79b28a"/><path d="M199.24,60.26a1.2,1.2,0,0,0-1.68,0L191.87,66a1.19,1.19,0,0,0,1.68,1.69L199.24,62A1.19,1.19,0,0,0,199.24,60.26Z" transform="translate(0.2 -4)" style="fill:#fff;opacity:0.2;mix-blend-mode:overlay"/><path d="M207.73,65.53a3.45,3.45,0,0,0-4.82.4l-6.34,6.34A3.17,3.17,0,1,0,201,76.69l6.34-6.34A3.43,3.43,0,0,0,207.73,65.53Z" transform="translate(0.2 -4)" style="fill:#9ce2b3"/><path d="M208.49,67a4.19,4.19,0,0,1-1.07,1.81l-6.34,6.34a3.46,3.46,0,0,1-4.83.4,2.78,2.78,0,0,1-.75-1.46,3,3,0,0,0,.67,3,3.46,3.46,0,0,0,4.83-.4l6.34-6.34A3.85,3.85,0,0,0,208.49,67Z" transform="translate(0.2 -4)" style="fill:#9ce2b3;mix-blend-mode:multiply"/><path d="M199.65,69.19a3.45,3.45,0,0,1,1.26,1c.15.15,2.91,2.91,2.77,2.76.13.24.27.47.39.72-.24-.12-.48-.26-.71-.4L200,69.9A8.06,8.06,0,0,1,199.65,69.19Z" transform="translate(0.2 -4)" style="fill:#79b28a"/><path d="M205.87,66.89a1.2,1.2,0,0,0-1.68,0l-5.69,5.69a1.19,1.19,0,0,0,1.68,1.69l5.69-5.69A1.19,1.19,0,0,0,205.87,66.89Z" transform="translate(0.2 -4)" style="fill:#fff;opacity:0.2;mix-blend-mode:overlay"/><path d="M214.36,72.16a3.44,3.44,0,0,0-4.82.4L203.2,78.9a3.17,3.17,0,1,0,4.43,4.42L214,77A3.43,3.43,0,0,0,214.36,72.16Z" transform="translate(0.2 -4)" style="fill:#9ce2b3"/><path d="M215.12,73.62A4.17,4.17,0,0,1,214,75.43l-6.34,6.34a3.45,3.45,0,0,1-4.82.4,2.81,2.81,0,0,1-.75-1.46,3,3,0,0,0,.67,3,3.46,3.46,0,0,0,4.83-.4L214,77A3.85,3.85,0,0,0,215.12,73.62Z" transform="translate(0.2 -4)" style="fill:#9ce2b3;mix-blend-mode:multiply"/><path d="M206.28,75.82a3.34,3.34,0,0,1,1.26,1c.15.15,2.91,2.91,2.77,2.76.13.24.27.47.39.71a8.06,8.06,0,0,1-.71-.39l-3.32-3.32A8.06,8.06,0,0,1,206.28,75.82Z" transform="translate(0.2 -4)" style="fill:#79b28a"/><path d="M212.5,73.52a1.2,1.2,0,0,0-1.68,0l-5.7,5.69a1.2,1.2,0,1,0,1.69,1.69l5.69-5.69A1.21,1.21,0,0,0,212.5,73.52Z" transform="translate(0.2 -4)" style="fill:#fff;opacity:0.2;mix-blend-mode:overlay"/><path d="M172.68,89.51l1.95-5.37s5.72-3.31,6.88-3.84,5.34-6.87,5.69-7.49-6.09-1.72-6.09-1.72a29.24,29.24,0,0,0,0-4.34c-.11-.58-1.29-3.29-2.16-1.66l-2,4.82-2.25,1.4c-1.2,1.06-3,5.93-3,5.93l-5.1,6.65C168.59,85.75,170.64,87.62,172.68,89.51Z" transform="translate(0.2 -4)" style="fill:#e48868"/><path d="M131.26,152.37c5.49-5.56,20.64-18.94,25.52-25.79,4.62-6.47,18.47-38.38,18.47-38.38l-7.61-7.38-22.13,31.1s-15.69,9.67-24.11,13.19C126.51,134.4,125.6,143.41,131.26,152.37Z" transform="translate(0.2 -4)" style="fill:#ece0d3"/><path d="M102.05,120.67c43.13,2.91,45.41,6.72,33.58,20.42l-6.45,52L114,170.76Z" transform="translate(0.2 -4)" style="fill:#ece0d3"/><polygon points="99.91 163.71 107.2 157.55 99.91 176.4 92.66 177.93 99.91 163.71" style="fill:#dc5955"/><path d="M73.17,180.35h0l-7.29-.53a.53.53,0,0,1-.5-.57.51.51,0,0,1,.57-.5l7.3.52a.54.54,0,0,1,0,1.08Z" transform="translate(0.2 -4)" style="fill:#cfb199"/><path d="M70.61,180a.54.54,0,0,1-.22,0,.55.55,0,0,1-.28-.72,137.1,137.1,0,0,0,9.18-29.76,18.4,18.4,0,0,0,.43-5.64,6.47,6.47,0,0,0-2.48-4.6.54.54,0,0,1-.14-.75.54.54,0,0,1,.75-.14,7.51,7.51,0,0,1,2.94,5.36,19.37,19.37,0,0,1-.44,6,138.1,138.1,0,0,1-9.25,30A.54.54,0,0,1,70.61,180Z" transform="translate(0.2 -4)" style="fill:#cfb199"/><path d="M126.87,185.45a.53.53,0,0,1-.47-.27l-22.1-38.49a.54.54,0,1,1,.94-.54l22.1,38.49a.55.55,0,0,1-.2.74A.54.54,0,0,1,126.87,185.45Z" transform="translate(0.2 -4)" style="fill:#cfb199"/><path d="M114.48,123.22,116,115.7s4.8-.28,6.11-2.8c.55-1.05.15-4.72-1.35-10.23-.16-.59,2.39-.14,2.21-.74-.34-1.17-6-5.12-6.36-7.37-1.38-8.23-2.73-10.1-5.74-11.56-6.68-3.23-26.73,2-26.27,11.33s4.79,13.26,13.22,24l-.29,1.81a8.61,8.61,0,0,0,9.9,9.87h0A8.59,8.59,0,0,0,114.48,123.22Z" transform="translate(0.2 -4)" style="fill:#e48868"/><path d="M97.84,118.31l2.1-9.94S91.63,103.65,95.2,99s14.18,10.89,14.18,10.89l.94-2.31-4.79-10.07s3.37-3.13,2.66-7.16c0,0,9.35-3.7,8.58-10.28s-29,3.4-33.81,9S85.5,105.63,97.84,118.31Z" transform="translate(0.2 -4)" style="fill:#393762"/><path d="M114.21,161.24,134,177.41a15,15,0,0,1,2.19,21.14h0a15,15,0,0,1-21.15,2L95.24,184.4Z" transform="translate(0.2 -4)" style="fill:#d172a5"/><path d="M114.77,161.71,95,145.53a15,15,0,0,0-21.15,2h0a15,15,0,0,0,2.19,21.14l19.75,16.17Z" transform="translate(0.2 -4)" style="fill:#64a5dc"/><path d="M82.89,147.41a10.6,10.6,0,0,1,10.18,2.74c1.34,1.31,3.21-.88,1.88-2.19a13.55,13.55,0,0,0-13-3.29C80.14,145.17,81.1,147.9,82.89,147.41Z" transform="translate(0.2 -4)" style="fill:#fff;opacity:0.66"/><path d="M77.38,147.21a1.42,1.42,0,0,0,.54.89l.06,0a1.41,1.41,0,0,0,1,.26,1.39,1.39,0,0,0,.89-.54,1.36,1.36,0,0,0-.3-1.89l-.06-.05a1.35,1.35,0,0,0-2.14,1.29Z" transform="translate(0.2 -4)" style="fill:#fff;opacity:0.66"/><g style="opacity:0.18"><path d="M80,165.89,99.14,181.6l.56.46,19.19,15.71a15.11,15.11,0,0,0,15.5,2.22,15.05,15.05,0,0,1-19.61.41L95.59,184.69l-.56-.46L75.84,168.52a14.95,14.95,0,0,1,3.47-25.39,15.84,15.84,0,0,0-1.55,1.62A15,15,0,0,0,80,165.89Z" transform="translate(0.2 -4)" style="fill:#fff;opacity:0.66"/></g><path d="M74.21,181.78l4.84-4.42s3.85-5.36,5.45-5.78l.72,3.56s11.72-1.59,12-1.1,1.62,2.71,1.62,2.71L95.32,178s1.31,1.35,1.16,1.94a4.42,4.42,0,0,1-.73,1.31,11.59,11.59,0,0,1,.55,3c0,1.52-2.84.14-3.42,1.49s-9,2.27-10.2,2.28-12,2.68-12,2.68Z" transform="translate(0.2 -4)" style="fill:#e48868"/><path d="M413.77,239.36l-30,5.08-30-5.08-.26,145.69h6.92l23-130.3,2.09,130.3h6.91s12-54.84,12.55-59.83-1.79-20.41-1.79-20.41Z" transform="translate(0.2 -4)" style="fill:#393762"/><path d="M360.28,133.49s2-19.8,4.73-29.75,13.33-13.57,19.84-13,18.84,3.25,19,18.47A150.15,150.15,0,0,0,406,134.43Z" transform="translate(0.2 -4)" style="fill:#393762"/><path d="M362.74,170.56l3.76,24.68c-9.88,14.43-15.12,36.22-17.84,52.93h71.62c-6.29-37.61-20.43-52.77-20.43-52.77l5.71-25.13c5.14-4.85,5.42-12.56,5.42-16V141.44s-22.84-11.13-28-11.13-26.26,10-26.26,10V154C355,164,362.74,170.56,362.74,170.56Z" transform="translate(0.2 -4)" style="fill:#ece0d3"/><path d="M366,236.63l2-101.31s-11.37,2.85-14.85,6.12-11.34,62.25-12.15,80c-.09,2.12,2.25,7.12,2.25,7.12-.14,2.43-.3,5.14-.47,8.07Z" transform="translate(0.2 -4)" style="fill:#de6879"/><path d="M405.36,170.18a.5.5,0,0,1-.28-.08.54.54,0,0,1-.17-.74,20.8,20.8,0,0,0,1.48-19,.51.51,0,0,1,0-.45c.41-.8.8-1.65,1.18-2.51s.79-1.76,1.22-2.57a.53.53,0,1,1,.95.49c-.41.8-.8,1.66-1.19,2.53s-.71,1.58-1.09,2.32a21.87,21.87,0,0,1-1.65,19.71A.54.54,0,0,1,405.36,170.18Z" transform="translate(0.2 -4)" style="fill:#393762"/><path d="M378.41,122.89v12.56s6.37,10.75,12.21.25l-.51-12.81Z" transform="translate(0.2 -4)" style="fill:#e48868"/><path d="M381,93.11c-10.84,1.42-12.57,13.94-10,23.83,1.94,7.38,6.36,14.83,13.31,14.65s11.14-9.68,12.38-15.5C398.71,106.71,398.34,90.84,381,93.11Z" transform="translate(0.2 -4)" style="fill:#e48868"/><path d="M372.31,114.2s-.42-4.14-3.77-2.76.74,10.73,4.46,9.65S372.31,114.2,372.31,114.2Z" transform="translate(0.2 -4)" style="fill:#e48868"/><path d="M394.56,114s.12-4.17,3.55-3,0,10.75-3.75,10S394.56,114,394.56,114Z" transform="translate(0.2 -4)" style="fill:#e48868"/><path d="M395.69,96.21a7.44,7.44,0,0,0-2.72-.57,2.73,2.73,0,0,0-1.28-1.58c-3.78-2-12.76-1.74-16.69,0s-8.5,9-9.54,13.15c-1.1,4.44,0,9.09,1.1,13.53.32,1.28.74,2.7,1.89,3.33a4.57,4.57,0,0,0,3.26.05,33.93,33.93,0,0,0,16-9.33,21.72,21.72,0,0,0,1.76-2.06v0A24.54,24.54,0,0,0,397,123.41a2.08,2.08,0,0,0,1.32.61c.79,0,1.27-.86,1.6-1.58,1.22-2.68,2.47-5.44,2.57-8.39S398.38,97.4,395.69,96.21Z" transform="translate(0.2 -4)" style="fill:#393762"/><path d="M384.38,132.13a9.32,9.32,0,0,1-4.72-1.26.54.54,0,0,1-.19-.74.53.53,0,0,1,.73-.19,8.52,8.52,0,0,0,8.83-.29.55.55,0,0,1,.75.14.54.54,0,0,1-.14.75A9.34,9.34,0,0,1,384.38,132.13Z" transform="translate(0.2 -4)" style="fill:#ba745d"/><path d="M421.35,236.63c-.14-2.35-.27-4.56-.38-6.59,0,0,1.55-6.47,1.44-8.87-.81-17.75-8-76.46-11.43-79.73s-13.44-6.16-13.44-6.16l1.18,101.35Z" transform="translate(0.2 -4)" style="fill:#de6879"/><path d="M411,141.44c3.57,2.44,5.87,9.13,7.48,14.63s16.52,20.68,14.63,26.06-2.39,5.8-.24,12.52-10.62,8.17-15.73,6.77-16.36-8.31-16.36-8.31l-.45-10.7,5.55.78Z" transform="translate(0.2 -4)" style="fill:#de6879"/><path d="M353.06,141.44c-3.57,2.44-5.68,9.13-7.3,14.63s-16.51,20.68-14.63,26.06,2.39,5.8.24,12.52,10.63,8.17,15.74,6.77,16.35-8.31,16.35-8.31l.45-10.7-5.54.78Z" transform="translate(0.2 -4)" style="fill:#de6879"/><polygon points="360.68 381.05 358.52 389.8 346.48 389.8 352.5 385.42 353.76 381.05 360.68 381.05" style="fill:#ece0d3"/><polygon points="385.8 381.05 385.8 389.8 397.85 389.8 391.82 385.42 392.71 381.05 385.8 381.05" style="fill:#ece0d3"/><path d="M416,180.41a.45.45,0,0,1-.16,0,.54.54,0,0,1-.35-.67,7.6,7.6,0,0,1,3.26-4.15.54.54,0,0,1,.56.92,6.54,6.54,0,0,0-2.8,3.55A.53.53,0,0,1,416,180.41Z" transform="translate(0.2 -4)" style="fill:#c55469"/><path d="M361.63,231h0c-5.35-.23-10.79-.56-16.16-1a.53.53,0,0,1-.49-.58.49.49,0,0,1,.57-.49c5.36.42,10.79.74,16.12,1a.55.55,0,0,1,.52.56A.54.54,0,0,1,361.63,231Z" transform="translate(0.2 -4)" style="fill:#c55469"/><path d="M401.42,230.57a.54.54,0,0,1-.54-.5.54.54,0,0,1,.5-.57,132.55,132.55,0,0,1,16.07-.13.54.54,0,0,1,.51.57.5.5,0,0,1-.56.51,130.57,130.57,0,0,0-15.95.12Z" transform="translate(0.2 -4)" style="fill:#c55469"/><path d="M344.14,201.63a.54.54,0,0,1,0-1.08,5.15,5.15,0,0,0,4.1-2.4A.53.53,0,0,1,349,198a.54.54,0,0,1,.18.74,6.2,6.2,0,0,1-5,2.92Z" transform="translate(0.2 -4)" style="fill:#c55469"/><path d="M419.47,200.56a.54.54,0,0,1-.27-.07,19.08,19.08,0,0,1-5.85-5.21.54.54,0,0,1,.12-.75.53.53,0,0,1,.75.11,17.82,17.82,0,0,0,5.52,4.92.54.54,0,0,1,.19.73A.5.5,0,0,1,419.47,200.56Z" transform="translate(0.2 -4)" style="fill:#c55469"/><path d="M421.13,192.69a.57.57,0,0,1-.18,0,.54.54,0,0,1-.32-.69,9,9,0,0,0-1.34-8.39.54.54,0,0,1,.85-.66,10.12,10.12,0,0,1,1.5,9.41A.55.55,0,0,1,421.13,192.69Z" transform="translate(0.2 -4)" style="fill:#c55469"/><path d="M389,230.22a.54.54,0,0,1-.41-.2,67.83,67.83,0,0,1-14.89-33,.53.53,0,0,1,.45-.61.53.53,0,0,1,.61.44,66.68,66.68,0,0,0,14.66,32.43.54.54,0,0,1-.07.76A.51.51,0,0,1,389,230.22Z" transform="translate(0.2 -4)" style="fill:#cfb199"/><path d="M408.9,169.44l-31.23-11.86-5.41,3.13a25.35,25.35,0,0,0-11.37,12.82l-15.22,40.12c-1.27,3.34,1.56,7.52,6.33,9.33l32.72,12.42c4.76,1.81,9.65.56,10.92-2.78l15.23-40.12a25.3,25.3,0,0,0,0-17.13Z" transform="translate(0.2 -4)" style="fill:#bc5228"/><path d="M410.87,175.37l-2-5.93-4.4-1.67,1.39,4.16a25.3,25.3,0,0,1,0,17.13l-15.23,40.12c-1.27,3.34-6.16,4.59-10.92,2.78l-32.65-12.39A11.85,11.85,0,0,0,352,223l32.72,12.42c4.76,1.81,9.65.56,10.92-2.78l15.23-40.12A25.3,25.3,0,0,0,410.87,175.37Z" transform="translate(0.2 -4)" style="fill:#a03c1a;mix-blend-mode:multiply"/><path d="M410.7,170.12v0a3.89,3.89,0,0,0-1.92-5.14l-28.07-10.65a3.9,3.9,0,0,0-4.85,2.57v0Z" transform="translate(0.2 -4)" style="fill:#a03c1a"/><path d="M410.7,170.12v0a3.89,3.89,0,0,0-1.92-5.14l-28.07-10.65a3.9,3.9,0,0,0-4.85,2.57v0Z" transform="translate(0.2 -4)" style="fill:#a03c1a"/><path d="M408.79,165l-13.89-5.27a3.89,3.89,0,0,1,1.92,5.14v0l13.88,5.27v0A3.89,3.89,0,0,0,408.79,165Z" transform="translate(0.2 -4)" style="fill:#a03c1a;mix-blend-mode:multiply"/><path d="M414.88,134.09l-18.34-7a4.39,4.39,0,0,0-5.65,2.54l-.82,2.17-8.63,22.75L408,164.65l8.64-22.75.82-2.17A4.37,4.37,0,0,0,414.88,134.09Z" transform="translate(0.2 -4)" style="fill:#fff0eb"/><rect x="398.9" y="138.65" width="13.83" height="24.34" transform="translate(80.12 -138.18) rotate(20.78)" style="fill:#fff0eb;mix-blend-mode:multiply"/><rect x="381.17" y="152.69" width="29.71" height="7.18" transform="translate(81.42 -134.36) rotate(20.78)" style="fill:#19663e"/><rect x="396.11" y="155.43" width="14.27" height="7.18" transform="translate(82.86 -136.74) rotate(20.78)" style="fill:#19663e;opacity:0.49;mix-blend-mode:multiply"/><g style="opacity:0.49;mix-blend-mode:overlay"><rect x="380.29" y="151.03" width="7.18" height="1.28" transform="translate(106.06 452.76) rotate(-69.22)" style="fill:#fff0eb"/><rect x="383.32" y="152.18" width="7.18" height="1.28" transform="translate(106.94 456.32) rotate(-69.22)" style="fill:#fff0eb"/><rect x="386.34" y="153.33" width="7.18" height="1.28" transform="translate(107.82 459.89) rotate(-69.22)" style="fill:#fff0eb"/><rect x="389.36" y="154.47" width="7.18" height="1.28" transform="translate(108.7 463.46) rotate(-69.22)" style="fill:#fff0eb"/><rect x="392.39" y="155.62" width="7.18" height="1.28" transform="translate(109.57 467.02) rotate(-69.22)" style="fill:#fff0eb"/><rect x="395.41" y="156.77" width="7.18" height="1.28" transform="translate(110.45 470.59) rotate(-69.22)" style="fill:#fff0eb"/><rect x="398.43" y="157.92" width="7.18" height="1.28" transform="translate(111.33 474.16) rotate(-69.22)" style="fill:#fff0eb"/><rect x="401.46" y="159.06" width="7.18" height="1.28" transform="translate(112.21 477.72) rotate(-69.22)" style="fill:#fff0eb"/><rect x="404.48" y="160.21" width="7.18" height="1.28" transform="translate(113.08 481.29) rotate(-69.22)" style="fill:#fff0eb"/></g><rect x="353.23" y="182.6" width="45.06" height="30.51" transform="translate(94.85 -124.46) rotate(20.78)" style="fill:#fff"/><rect x="348.69" y="207.39" width="45.06" height="4.89" transform="translate(98.81 -122.07) rotate(20.78)" style="fill:#25932a"/><path d="M394.62,196.36l-23.57-9a1.72,1.72,0,0,1-1-2.22h0a1.73,1.73,0,0,1,2.22-1l23.57,8.95a1.72,1.72,0,0,1,1,2.22h0A1.73,1.73,0,0,1,394.62,196.36Z" transform="translate(0.2 -4)" style="fill:#ea0c0c"/><path d="M392.92,200.84l-23.57-9a1.71,1.71,0,0,1-1-2.21h0a1.72,1.72,0,0,1,2.22-1l23.57,8.95a1.72,1.72,0,0,1,1,2.21h0A1.72,1.72,0,0,1,392.92,200.84Z" transform="translate(0.2 -4)" style="fill:#ea0c0c"/><path d="M414.88,134.09,402,129.18a4.37,4.37,0,0,1,2.54,5.64l-.82,2.17,12.93,4.91.82-2.17A4.37,4.37,0,0,0,414.88,134.09Z" transform="translate(0.2 -4)" style="fill:#fff0eb;mix-blend-mode:multiply"/><path d="M391.64,147.79h0a4.36,4.36,0,0,1-2.52-5.6l3.42-9a4.36,4.36,0,0,1,5.6-2.52h0a4.36,4.36,0,0,1,2.52,5.6l-3.42,9A4.34,4.34,0,0,1,391.64,147.79Z" transform="translate(0.2 -4)" style="fill:#fff0eb;mix-blend-mode:overlay"/><ellipse cx="383.61" cy="174.41" rx="7.24" ry="18.13" transform="translate(84.63 467.18) rotate(-69.22)" style="fill:#f9f9e8;opacity:0.44;mix-blend-mode:overlay"/><path d="M416.18,182.41s-2.75-5.35-4.4-5.31L409.66,182s-9-1.65-9.11-1.1-.8,3-.8,3l3.71.2s-.87,1.65-.57,2.17a4.55,4.55,0,0,0,1.05,1,11.56,11.56,0,0,0,.32,3c.39,1.46.06,2.71,1,3.84s9.26-.31,10.4-.64a1.67,1.67,0,0,0,.33-.13,6.2,6.2,0,0,0,.21-11.05Z" transform="translate(0.2 -4)" style="fill:#e48868"/><path d="M345.21,184.71s2.75-5.35,4.41-5.32l2.11,4.9s9-1.65,9.11-1.1.8,3,.8,3l-3.71.2s.88,1.65.57,2.17a4.35,4.35,0,0,1-1.05,1.05,11.23,11.23,0,0,1-.31,3c-.39,1.47-.07,2.72-1,3.84s-9.25-.3-10.4-.63l-.32-.13a6.2,6.2,0,0,1-.22-11Z" transform="translate(0.2 -4)" style="fill:#e48868"/></g></svg>